<!-- sprite.svg -->
<svg xmlns="http://www.w3.org/2000/svg" xmlns:xlink="http://www.w3.org/1999/xlink">
    <defs>
        <symbol id="arrow" viewBox="0 0 10 8" fill="none" xmlns="http://www.w3.org/2000/svg">
            <path
                d="M6.40293 7.65185C6.40293 7.65185 8.90377 5.40096 9.87832 4.52409C9.95944 4.45114 10 4.35521 10 4.25928C10 4.16335 9.95944 4.06791 9.87832 3.99447C8.90432 3.11809 6.40293 0.8677 6.40293 0.8677C6.32293 0.795252 6.21736 0.759277 6.11179 0.759277C6.00456 0.759277 5.89788 0.796251 5.8162 0.869698C5.65341 1.01559 5.6523 1.25243 5.81398 1.39732L8.57984 3.88454H0.416713C0.186687 3.88454 0 4.05242 0 4.25928C0 4.46613 0.186687 4.63401 0.416713 4.63401H8.57984L5.81342 7.12173C5.65285 7.26613 5.65452 7.50246 5.81676 7.64836C5.89899 7.7223 6.00622 7.75928 6.1129 7.75928C6.21847 7.75928 6.32293 7.7233 6.40293 7.65185Z"
                fill="currentColor" />
        </symbol>
        <symbol id="linkedin" viewBox="0 0 16 17" fill="none">
            <path
                d="M12.6667 0.178101H3.33333C1.49267 0.178101 0 1.67077 0 3.51143V12.8448C0 14.6854 1.49267 16.1781 3.33333 16.1781H12.6667C14.508 16.1781 16 14.6854 16 12.8448V3.51143C16 1.67077 14.508 0.178101 12.6667 0.178101ZM5.33333 12.8448H3.33333V5.51143H5.33333V12.8448ZM4.33333 4.6661C3.68933 4.6661 3.16667 4.13943 3.16667 3.4901C3.16667 2.84077 3.68933 2.3141 4.33333 2.3141C4.97733 2.3141 5.5 2.84077 5.5 3.4901C5.5 4.13943 4.978 4.6661 4.33333 4.6661ZM13.3333 12.8448H11.3333V9.10877C11.3333 6.86343 8.66667 7.03343 8.66667 9.10877V12.8448H6.66667V5.51143H8.66667V6.6881C9.59733 4.9641 13.3333 4.83677 13.3333 8.33877V12.8448Z"
                fill="currentColor" />
        </symbol>
        <symbol id="github" viewBox="0 0 16 17" fill="none">
            <path
                d="M8 1.51143C11.676 1.51143 14.6667 4.5021 14.6667 8.1781C14.6667 11.8541 11.676 14.8448 8 14.8448C4.324 14.8448 1.33333 11.8541 1.33333 8.1781C1.33333 4.5021 4.324 1.51143 8 1.51143ZM8 0.178101C3.582 0.178101 0 3.7601 0 8.1781C0 12.5961 3.582 16.1781 8 16.1781C12.418 16.1781 16 12.5961 16 8.1781C16 3.7601 12.418 0.178101 8 0.178101ZM8 4.1781C5.79133 4.1781 4 5.96877 4 8.1781C4 9.94543 5.146 11.4448 6.736 11.9734C6.936 12.0108 7 11.8868 7 11.7808V11.0361C5.88733 11.2781 5.65533 10.5648 5.65533 10.5648C5.474 10.1028 5.21133 9.97943 5.21133 9.97943C4.84867 9.73077 5.23867 9.7361 5.23867 9.7361C5.64067 9.7641 5.852 10.1488 5.852 10.1488C6.20867 10.7601 6.78733 10.5834 7.016 10.4814C7.052 10.2228 7.15533 10.0468 7.27 9.94677C6.38133 9.84543 5.448 9.5021 5.448 7.9701C5.448 7.53343 5.604 7.17677 5.86 6.89677C5.81867 6.79477 5.68133 6.38743 5.89867 5.83677C5.89867 5.83677 6.23467 5.72943 6.99867 6.24677C7.318 6.1581 7.66 6.1141 8 6.1121C8.34 6.11343 8.682 6.1581 9.002 6.24677C9.766 5.72943 10.1007 5.83677 10.1007 5.83677C10.3187 6.38743 10.1813 6.79477 10.1407 6.89543C10.3973 7.17543 10.552 7.5321 10.552 7.96877C10.552 9.50543 9.616 9.84343 8.72533 9.9421C8.86933 10.0661 9 10.3094 9 10.6828V11.7801C9 11.8868 9.064 12.0114 9.26667 11.9721C10.8553 11.4434 12 9.94477 12 8.1781C12 5.96877 10.2087 4.1781 8 4.1781Z"
                fill="currentColor" />
        </symbol>


    </defs>
</svg>