<!-- sprite.svg -->
<svg xmlns="http://www.w3.org/2000/svg" xmlns:xlink="http://www.w3.org/1999/xlink">
    <defs>
        <symbol id="arrow" viewBox="0 0 10 8" fill="none" xmlns="http://www.w3.org/2000/svg">
            <path
                d="M6.40293 7.65185C6.40293 7.65185 8.90377 5.40096 9.87832 4.52409C9.95944 4.45114 10 4.35521 10 4.25928C10 4.16335 9.95944 4.06791 9.87832 3.99447C8.90432 3.11809 6.40293 0.8677 6.40293 0.8677C6.32293 0.795252 6.21736 0.759277 6.11179 0.759277C6.00456 0.759277 5.89788 0.796251 5.8162 0.869698C5.65341 1.01559 5.6523 1.25243 5.81398 1.39732L8.57984 3.88454H0.416713C0.186687 3.88454 0 4.05242 0 4.25928C0 4.46613 0.186687 4.63401 0.416713 4.63401H8.57984L5.81342 7.12173C5.65285 7.26613 5.65452 7.50246 5.81676 7.64836C5.89899 7.7223 6.00622 7.75928 6.1129 7.75928C6.21847 7.75928 6.32293 7.7233 6.40293 7.65185Z"
                fill="currentColor" />
        </symbol>
        <symbol id="linkedin" viewBox="0 0 16 16" fill="none" xmlns="http://www.w3.org/2000/symbol">
            <g clip-path="url(#clip0_16_416)">
                <path
                    d="M12.6667 0H3.33333C1.49267 0 0 1.49267 0 3.33333V12.6667C0 14.5073 1.49267 16 3.33333 16H12.6667C14.508 16 16 14.5073 16 12.6667V3.33333C16 1.49267 14.508 0 12.6667 0ZM5.33333 12.6667H3.33333V5.33333H5.33333V12.6667ZM4.33333 4.488C3.68933 4.488 3.16667 3.96133 3.16667 3.312C3.16667 2.66267 3.68933 2.136 4.33333 2.136C4.97733 2.136 5.5 2.66267 5.5 3.312C5.5 3.96133 4.978 4.488 4.33333 4.488ZM13.3333 12.6667H11.3333V8.93067C11.3333 6.68533 8.66667 6.85533 8.66667 8.93067V12.6667H6.66667V5.33333H8.66667V6.51C9.59733 4.786 13.3333 4.65867 13.3333 8.16067V12.6667Z"
                    fill="white" />
            </g>
            <defs>
                <clipPath id="clip0_16_416">
                    <rect width="16" height="16" fill="white" />
                </clipPath>
            </defs>
        </symbol>
        <symbol id="github" viewBox="0 0 16 16" fill="none"
            xmlns="http://www.w3.org/2000/symbol">
            <g clip-path="url(#clip0_16_418)">
                <path
                    d="M8 1.33333C11.676 1.33333 14.6667 4.324 14.6667 8C14.6667 11.676 11.676 14.6667 8 14.6667C4.324 14.6667 1.33333 11.676 1.33333 8C1.33333 4.324 4.324 1.33333 8 1.33333ZM8 0C3.582 0 0 3.582 0 8C0 12.418 3.582 16 8 16C12.418 16 16 12.418 16 8C16 3.582 12.418 0 8 0ZM8 4C5.79133 4 4 5.79067 4 8C4 9.76733 5.146 11.2667 6.736 11.7953C6.936 11.8327 7 11.7087 7 11.6027V10.858C5.88733 11.1 5.65533 10.3867 5.65533 10.3867C5.474 9.92467 5.21133 9.80133 5.21133 9.80133C4.84867 9.55267 5.23867 9.558 5.23867 9.558C5.64067 9.586 5.852 9.97067 5.852 9.97067C6.20867 10.582 6.78733 10.4053 7.016 10.3033C7.052 10.0447 7.15533 9.86867 7.27 9.76867C6.38133 9.66733 5.448 9.324 5.448 7.792C5.448 7.35533 5.604 6.99867 5.86 6.71867C5.81867 6.61667 5.68133 6.20933 5.89867 5.65867C5.89867 5.65867 6.23467 5.55133 6.99867 6.06867C7.318 5.98 7.66 5.936 8 5.934C8.34 5.93533 8.682 5.98 9.002 6.06867C9.766 5.55133 10.1007 5.65867 10.1007 5.65867C10.3187 6.20933 10.1813 6.61667 10.1407 6.71733C10.3973 6.99733 10.552 7.354 10.552 7.79067C10.552 9.32733 9.616 9.66533 8.72533 9.764C8.86933 9.888 9 10.1313 9 10.5047V11.602C9 11.7087 9.064 11.8333 9.26667 11.794C10.8553 11.2653 12 9.76667 12 8C12 5.79067 10.2087 4 8 4Z"
                    fill="white" />
            </g>
            <defs>
                <clipPath id="clip0_16_418">
                    <rect width="16" height="16" fill="white" />
                </clipPath>
            </defs>
        </symbol>


    </defs>
</svg>