<!-- sprite.svg -->
<svg xmlns="http://www.w3.org/2000/svg" xmlns:xlink="http://www.w3.org/1999/xlink">
    <defs>
        <symbol id="arrow" viewBox="0 0 10 8" fill="none" xmlns="http://www.w3.org/2000/svg">
            <path
                d="M6.40293 7.65185C6.40293 7.65185 8.90377 5.40096 9.87832 4.52409C9.95944 4.45114 10 4.35521 10 4.25928C10 4.16335 9.95944 4.06791 9.87832 3.99447C8.90432 3.11809 6.40293 0.8677 6.40293 0.8677C6.32293 0.795252 6.21736 0.759277 6.11179 0.759277C6.00456 0.759277 5.89788 0.796251 5.8162 0.869698C5.65341 1.01559 5.6523 1.25243 5.81398 1.39732L8.57984 3.88454H0.416713C0.186687 3.88454 0 4.05242 0 4.25928C0 4.46613 0.186687 4.63401 0.416713 4.63401H8.57984L5.81342 7.12173C5.65285 7.26613 5.65452 7.50246 5.81676 7.64836C5.89899 7.7223 6.00622 7.75928 6.1129 7.75928C6.21847 7.75928 6.32293 7.7233 6.40293 7.65185Z"
                fill="currentColor" />
        </symbol>
    </defs>
</svg>