<svg width="24" height="24" viewBox="0 0 24 24" fill="none" xmlns="http://www.w3.org/2000/svg">
<path d="M12 2C17.514 2 22 6.486 22 12C22 17.514 17.514 22 12 22C6.486 22 2 17.514 2 12C2 6.486 6.486 2 12 2ZM12 0C5.373 0 0 5.373 0 12C0 18.627 5.373 24 12 24C18.627 24 24 18.627 24 12C24 5.373 18.627 0 12 0ZM12.021 17.824C8.114 17.824 6 15.386 6 12.238C6 8.875 8.381 6.176 12.638 6.176C15.745 6.176 18 8.195 18 10.977C18 15.333 12.835 16.483 13.094 13.998C12.74 14.553 12.167 15.175 11.068 15.175C9.811 15.175 9.028 14.255 9.028 12.772C9.028 10.55 10.489 8.672 12.218 8.672C13.047 8.672 13.617 9.11 13.856 9.782L14.088 8.966H15.257C15.135 9.382 14.096 13.23 14.096 13.23C13.773 14.563 14.771 14.586 15.658 13.878C17.323 12.588 17.408 9.214 15.159 7.807C12.748 6.362 7.262 7.256 7.262 12.154C7.262 14.96 9.238 16.845 12.176 16.845C13.895 16.845 14.947 16.38 15.824 15.871L16.412 16.72C15.556 17.202 14.181 17.824 12.021 17.824ZM10.849 10.671C10.492 11.341 10.261 12.209 10.261 12.883C10.261 14.688 12.022 14.699 12.887 13.003C13.243 12.306 13.473 11.417 13.473 10.738C13.473 9.28 11.725 9.021 10.849 10.671Z" fill="black"/>
</svg>
