<svg width="301" height="267" viewBox="0 0 301 267" fill="none" xmlns="http://www.w3.org/2000/svg">
<path d="M300.617 244.453C300.617 256.905 233.322 267 150.308 267C67.2945 267 0 256.905 0 244.453C0 235.639 33.7321 228.002 82.8926 224.298C103.165 222.765 126.07 221.907 150.308 221.907C160.272 221.907 170.008 222.053 179.425 222.329C248.503 224.365 300.617 233.495 300.617 244.453Z" fill="#3F3D56"/>
<path opacity="0.1" d="M130.914 249.06C162.78 249.06 188.613 245.912 188.613 242.03C188.613 238.147 162.78 234.999 130.914 234.999C99.0476 234.999 73.2148 238.147 73.2148 242.03C73.2148 245.912 99.0476 249.06 130.914 249.06Z" fill="black"/>
<path d="M130.671 247.121C160.797 247.121 185.219 221.071 185.219 188.937C185.219 156.803 160.797 130.753 130.671 130.753C100.546 130.753 76.124 156.803 76.124 188.937C76.124 221.071 100.546 247.121 130.671 247.121Z" fill="#3F3D56"/>
<path d="M147.884 223.362H113.943V254.394H147.884V223.362Z" fill="#A0616A"/>
<path d="M192.249 230.878L190.31 241.545L202.916 243.484L211.159 238.636L210.674 230.878H192.249Z" fill="#575A89"/>
<path d="M128.732 30.6281C128.732 30.6281 127.762 41.7801 125.338 42.2649C122.914 42.7498 130.671 62.1444 130.671 62.1444H142.308L151.521 59.7201L147.157 49.053C147.157 49.053 141.339 41.2952 145.702 34.9919C150.066 28.6887 128.732 30.6281 128.732 30.6281Z" fill="#A0616A"/>
<path opacity="0.1" d="M128.732 30.6281C128.732 30.6281 127.762 41.7801 125.338 42.2649C122.914 42.7498 130.671 62.1444 130.671 62.1444H142.308L151.521 59.7201L147.157 49.053C147.157 49.053 141.339 41.2952 145.702 34.9919C150.066 28.6887 128.732 30.6281 128.732 30.6281Z" fill="black"/>
<path d="M104.488 115.964C104.488 115.964 91.882 140.207 102.064 145.056C112.246 149.904 114.671 149.42 114.671 150.874C114.671 152.329 112.731 151.844 113.701 154.268C114.671 156.693 111.761 166.39 114.671 172.208C117.58 178.027 116.61 182.39 116.61 182.39C116.61 182.39 116.61 182.875 117.58 184.815C118.55 186.754 119.034 188.209 118.55 189.179C118.065 190.148 115.156 196.452 118.065 197.906C120.974 199.361 136.005 200.331 137.459 197.906C138.914 195.482 136.005 194.027 137.459 192.573C138.914 191.118 139.884 190.633 138.914 189.663C137.944 188.694 136.974 176.572 136.974 176.572C136.974 176.572 139.399 162.511 138.429 160.572C137.459 158.632 136.005 156.693 136.974 155.238C137.944 153.783 138.914 154.268 139.399 152.329C139.884 150.389 140.853 146.026 140.853 146.026L146.187 145.541L158.793 147.965C158.793 147.965 172.855 163.481 188.37 168.329C188.37 168.329 192.734 172.693 194.189 172.693C195.643 172.693 195.643 172.693 195.158 173.663C194.674 174.633 193.219 174.633 194.189 175.602C195.158 176.572 196.613 175.117 195.643 176.572C194.674 178.027 193.704 178.027 194.674 178.996C195.643 179.966 194.189 185.3 194.189 185.785C194.189 186.269 189.825 231.847 191.279 232.817C192.734 233.786 213.098 236.695 214.553 232.817C216.008 228.938 213.583 224.089 213.583 224.089C213.583 224.089 220.856 165.905 218.917 162.026C216.977 158.147 210.189 140.692 173.824 129.54C173.824 129.54 163.642 127.601 163.642 126.146C163.642 124.691 162.672 115.479 160.733 114.994C158.793 114.509 147.642 114.024 147.642 114.024L133.58 118.388L114.186 114.994L104.488 115.964Z" fill="#2F2E41"/>
<path d="M121.459 197.421L119.035 206.149C119.035 206.149 117.095 220.21 119.519 223.604C121.424 226.27 124.824 229.534 131.129 230.107C132.896 230.269 134.666 229.823 136.145 228.843C137.625 227.863 138.725 226.407 139.265 224.717C139.337 224.514 139.382 224.303 139.399 224.089C139.399 223.119 137.944 211.482 137.944 211.482L135.52 199.361L135.035 195.967L121.459 197.421Z" fill="#2F2E41"/>
<path d="M192.249 239.12C192.249 239.12 189.825 236.696 189.34 239.12C188.855 241.544 186.916 251.727 190.31 252.212C193.704 252.696 226.19 257.545 229.584 255.606C232.978 253.666 239.281 250.757 235.402 249.302C231.523 247.848 220.372 243.484 220.372 243.484C220.372 243.484 214.068 235.241 213.099 234.756C212.129 234.272 206.795 235.241 204.371 237.181C201.947 239.12 192.249 239.12 192.249 239.12Z" fill="#2F2E41"/>
<path d="M140.369 40.8097C148.67 40.8097 155.4 34.0802 155.4 25.7789C155.4 17.4776 148.67 10.748 140.369 10.748C132.067 10.748 125.338 17.4776 125.338 25.7789C125.338 34.0802 132.067 40.8097 140.369 40.8097Z" fill="#A0616A"/>
<path d="M138.914 59.7195L133.096 53.4162L126.646 40.8097C126.646 40.8097 121.944 39.3551 120.974 41.7795C120.004 44.2038 102.549 51.9616 102.549 51.9616C102.549 51.9616 106.913 92.6904 104.973 96.5693C103.034 100.448 99.6398 115.964 102.549 117.419C105.458 118.873 119.034 117.419 123.398 119.358C127.762 121.297 140.369 121.297 143.763 118.873C147.157 116.449 148.126 114.509 151.52 115.964C154.41 117.202 161.165 74.8662 163.11 62.25C163.273 61.1904 163.137 60.1061 162.717 59.1198C162.296 58.1335 161.608 57.2846 160.73 56.6693C156.379 53.6177 148.544 48.3589 147.157 49.0525C145.217 50.0222 138.914 59.7195 138.914 59.7195Z" fill="#575A89"/>
<path d="M159.763 57.7803C160.902 58.0649 161.926 58.6911 162.698 59.5748C163.471 60.4585 163.954 61.5574 164.084 62.7239L168.006 98.0241C168.006 98.0241 158.309 118.873 153.46 104.812C148.611 90.7511 159.763 57.7803 159.763 57.7803Z" fill="#575A89"/>
<path d="M158.793 101.418L169.46 98.5088C169.46 98.5088 171.4 112.085 173.339 112.085C175.279 112.085 166.551 119.843 162.187 118.873C157.824 117.903 151.52 114.509 151.036 112.085C150.551 109.661 155.399 99.4785 155.399 99.4785L158.793 101.418Z" fill="#575A89"/>
<path d="M129.022 32.2633C130.044 30.0097 129.867 27.3809 130.712 25.055C131.164 23.8097 131.898 22.6857 132.857 21.7711C133.816 20.8564 134.973 20.1758 136.238 19.7824C137.503 19.3889 138.843 19.2934 140.151 19.5031C141.459 19.7129 142.701 20.2223 143.78 20.9915C144.867 21.7665 145.957 22.8554 147.284 22.7075C148.712 22.5482 149.987 20.9542 151.3 21.5384C152.756 22.1858 152.363 24.7951 153.838 25.3978C154.615 25.715 155.532 25.2266 155.98 24.5174C156.371 23.7722 156.585 22.9463 156.603 22.1046C156.807 20.0366 156.991 17.848 156.094 15.9735C155.717 15.3382 155.388 14.6753 155.11 13.9905C154.953 13.3509 154.891 12.692 154.923 12.0343C154.915 9.60364 154.738 7.06826 153.515 4.96781C152.157 2.63701 149.648 1.14658 147.03 0.496245C144.413 -0.154091 141.67 -0.0543739 138.983 0.173154C134.54 0.549284 129.906 1.35554 126.406 4.11753C125.93 4.4651 125.521 4.89531 125.197 5.38766C124.89 5.97254 124.672 6.6005 124.553 7.25026C123.796 10.3321 122.661 13.3087 121.175 16.1122C120.459 17.3007 119.875 18.5632 119.431 19.8774C119.06 21.213 119.085 22.7349 119.862 23.8828C120.495 24.8174 121.506 25.3154 122.301 26.0795C123.088 26.8366 123.456 28.2926 124.329 28.8659C125.09 29.3663 126.002 29.0131 126.779 29.5435C127.776 30.2245 127.848 31.7177 129.022 32.2633Z" fill="#2F2E41"/>
<path d="M141.338 66.9932L142.793 64.084C142.793 64.084 164.127 70.3872 168.491 76.2056C168.491 76.2056 179.158 69.4175 184.976 70.3872L190.795 71.357L172.855 87.3575L150.066 85.4181L141.338 66.9932Z" fill="#F2F2F2"/>
<path d="M140.369 64.084L120.489 91.7213L149.096 105.782C149.096 105.782 151.77 107.237 153.827 105.782L172.855 97.0548L190.795 71.357L172.855 80.5694C172.855 80.5694 170.915 76.6905 167.036 78.63L140.369 64.084Z" fill="#A0616A"/>
<path d="M170.915 113.055L174.794 102.873C174.794 102.873 183.522 91.7211 178.673 86.3876C173.824 81.0541 168.491 101.903 168.491 101.903L170.915 113.055Z" fill="#A0616A"/>
<path d="M126.161 111.43L134.625 104.568C134.625 104.568 147.77 99.3 146.251 92.2537C144.733 85.2074 129.659 100.567 129.659 100.567L126.161 111.43Z" fill="#A0616A"/>
<path opacity="0.1" d="M105.216 62.387H104.731C104.731 62.387 97.2156 53.4169 95.761 65.5386C94.3064 77.6602 89.4578 117.904 102.064 119.359C114.671 120.813 123.641 113.298 123.641 113.298C123.641 113.298 132.853 99.2368 129.459 99.2368C127.817 99.2368 123.351 98.4992 119.277 98.7519C114.931 99.0215 111.026 100.246 111.277 98.9943C111.762 96.57 118.792 65.781 105.216 62.387Z" fill="black"/>
<path d="M104.489 52.9316L102.549 51.9619C102.549 51.9619 94.7913 53.4165 93.3367 65.5382C91.8821 77.6598 87.0335 117.904 99.64 119.358C112.246 120.813 129.217 117.419 129.217 117.419C129.217 117.419 132.611 98.9939 129.217 98.9939C125.823 98.9939 108.368 101.418 108.852 98.9939C109.337 96.5696 118.065 56.3257 104.489 52.9316Z" fill="#575A89"/>
<path d="M163.885 107.48L169.231 99.2852L172.612 112.813L163.885 116.692V107.48Z" fill="#575A89"/>
</svg>
