<svg width="1249" height="1110" viewBox="0 0 1249 1110" fill="none" xmlns="http://www.w3.org/2000/svg">
<path d="M1249 1015.65C1249 1067.39 969.405 1109.33 624.5 1109.33C279.595 1109.33 0 1067.39 0 1015.65C0 979.03 140.15 947.301 344.402 931.91C428.629 925.544 523.794 921.979 624.5 921.979C665.898 921.979 706.35 922.583 745.472 923.731C1032.48 932.192 1249 970.125 1249 1015.65Z" fill="#3F3D56"/>
<path opacity="0.1" d="M543.919 1034.79C676.317 1034.79 783.647 1021.72 783.647 1005.58C783.647 989.45 676.317 976.372 543.919 976.372C411.522 976.372 304.192 989.45 304.192 1005.58C304.192 1021.72 411.522 1034.79 543.919 1034.79Z" fill="black"/>
<path d="M542.912 1026.73C668.078 1026.73 769.545 918.503 769.545 784.993C769.545 651.483 668.078 543.251 542.912 543.251C417.746 543.251 316.279 651.483 316.279 784.993C316.279 918.503 417.746 1026.73 542.912 1026.73Z" fill="#3F3D56"/>
<path d="M614.427 928.023H473.411V1056.95H614.427V928.023Z" fill="#A0616A"/>
<path d="M798.756 959.25L790.698 1003.57L843.075 1011.63L877.322 991.482L875.307 959.25H798.756Z" fill="#575A89"/>
<path d="M534.854 127.253C534.854 127.253 530.825 173.587 520.753 175.602C510.68 177.616 542.912 258.197 542.912 258.197H591.261L629.536 248.124L611.406 203.805C611.406 203.805 587.232 171.573 605.362 145.384C623.493 119.195 534.854 127.253 534.854 127.253Z" fill="#F1A6B0"/>
<path d="M434.128 481.806C434.128 481.806 381.75 582.532 424.055 602.677C466.36 622.822 476.433 620.808 476.433 626.851C476.433 632.895 468.375 630.88 472.404 640.953C476.433 651.025 464.346 691.316 476.433 715.49C488.52 739.664 484.491 757.795 484.491 757.795C484.491 757.795 484.491 759.809 488.52 767.867C492.549 775.925 494.563 781.969 492.549 785.998C490.534 790.027 478.447 816.216 490.534 822.259C502.621 828.303 565.071 832.332 571.115 822.259C577.159 812.187 565.071 806.143 571.115 800.1C577.159 794.056 581.188 792.042 577.159 788.013C573.13 783.984 569.1 733.621 569.1 733.621C569.1 733.621 579.173 675.2 575.144 667.142C571.115 659.084 565.071 651.025 569.1 644.982C573.13 638.938 577.159 640.953 579.173 632.895C581.188 624.837 585.217 606.706 585.217 606.706L607.376 604.692L659.754 614.764C659.754 614.764 718.175 679.229 782.639 699.374C782.639 699.374 800.77 717.505 806.813 717.505C812.857 717.505 812.857 717.505 810.842 721.534C808.828 725.563 802.784 725.563 806.813 729.592C810.842 733.621 816.886 727.577 812.857 733.621C808.828 739.664 804.799 739.664 808.828 743.693C812.857 747.722 806.813 769.882 806.813 771.896C806.813 773.911 788.683 963.275 794.726 967.305C800.77 971.334 885.38 983.421 891.423 967.305C897.467 951.188 887.394 931.043 887.394 931.043C887.394 931.043 917.612 689.301 909.554 673.185C901.496 657.069 873.292 584.546 722.204 538.213C722.204 538.213 679.899 530.154 679.899 524.111C679.899 518.067 675.87 479.792 667.812 477.777C659.754 475.763 613.42 473.748 613.42 473.748L554.999 491.879L474.418 477.777L434.128 481.806Z" fill="#2F2E41"/>
<path d="M504.637 820.245L494.564 856.506C494.564 856.506 486.506 914.927 496.579 929.029C504.49 940.105 518.617 953.667 544.815 956.048C552.157 956.721 559.51 954.869 565.656 950.796C571.802 946.723 576.374 940.675 578.616 933.651C578.916 932.81 579.104 931.933 579.174 931.043C579.174 927.014 573.13 878.666 573.13 878.666L563.058 828.303L561.043 814.201L504.637 820.245Z" fill="#2F2E41"/>
<path d="M798.756 993.495C798.756 993.495 788.683 983.422 786.668 993.495C784.654 1003.57 776.596 1045.87 790.698 1047.89C804.799 1049.9 939.772 1070.05 953.873 1061.99C967.975 1053.93 994.164 1041.84 978.048 1035.8C961.931 1029.76 915.598 1011.63 915.598 1011.63C915.598 1011.63 889.409 977.378 885.38 975.364C881.351 973.349 859.191 977.378 849.118 985.437C839.046 993.495 798.756 993.495 798.756 993.495Z" fill="#2F2E41"/>
<path d="M645.152 107.106C645.152 141.32 617.416 169.056 583.202 169.056C548.988 169.056 521.252 141.32 521.252 107.106C521.252 72.8922 548.988 45.1562 583.202 45.1562C617.416 45.1562 645.152 72.8922 645.152 107.106Z" fill="#E7A1AB" stroke="#DD9BA4"/>
<path d="M577.159 248.122L552.985 221.933L526.189 169.556C526.189 169.556 506.651 163.512 502.622 173.585C498.593 183.658 426.07 215.89 426.07 215.89C426.07 215.89 444.201 385.109 436.143 401.225C428.085 417.341 413.983 481.806 426.07 487.849C438.157 493.893 494.564 487.849 512.694 495.908C530.825 503.966 583.202 503.966 597.304 493.893C611.406 483.82 615.435 475.762 629.536 481.806C641.541 486.951 669.606 311.053 677.686 258.636C678.367 254.233 677.802 249.728 676.054 245.63C674.307 241.533 671.447 238.006 667.799 235.449C649.723 222.77 617.169 200.921 611.406 203.803C603.347 207.832 577.159 248.122 577.159 248.122Z" fill="#575A89"/>
<path d="M663.783 240.065C668.514 241.248 672.769 243.85 675.978 247.522C679.187 251.193 681.195 255.759 681.734 260.605L698.03 407.27C698.03 407.27 657.74 493.894 637.594 435.473C617.449 377.053 663.783 240.065 663.783 240.065Z" fill="#575A89"/>
<path d="M659.754 421.37L704.073 409.283C704.073 409.283 712.131 465.69 720.189 465.69C728.248 465.69 691.986 497.922 673.856 493.893C655.725 489.864 629.536 475.762 627.522 465.69C625.507 455.617 645.652 413.312 645.652 413.312L659.754 421.37Z" fill="#575A89"/>
<path d="M536.813 134.047C541.06 124.684 540.322 113.762 543.833 104.099C545.713 98.9242 548.764 94.2545 552.747 90.4543C556.73 86.654 561.538 83.8262 566.795 82.1916C572.052 80.557 577.616 80.1599 583.052 81.0314C588.488 81.9029 593.648 84.0194 598.131 87.2155C602.647 90.4355 607.175 94.9596 612.687 94.3448C618.623 93.6829 623.918 87.0605 629.375 89.4875C635.425 92.1776 633.791 103.019 639.919 105.522C643.145 106.841 646.957 104.811 648.818 101.865C650.445 98.7685 651.332 95.337 651.408 91.8401C652.254 83.248 653.018 74.1547 649.292 66.3667C647.724 63.727 646.358 60.9727 645.205 58.1274C644.554 55.4704 644.292 52.7325 644.429 50.0001C644.395 39.9011 643.658 29.3671 638.575 20.6402C632.935 10.9562 622.51 4.7638 611.634 2.06179C600.759 -0.640215 589.364 -0.225912 578.198 0.71942C559.738 2.28216 540.487 5.63197 525.944 17.1075C523.967 18.5516 522.266 20.339 520.921 22.3846C519.644 24.8147 518.742 27.4237 518.245 30.1233C515.101 42.9278 510.387 55.2948 504.209 66.943C501.237 71.881 498.809 77.1261 496.966 82.5866C495.424 88.1354 495.528 94.459 498.756 99.2282C501.385 103.111 505.587 105.18 508.888 108.355C512.159 111.5 513.69 117.55 517.314 119.932C520.477 122.011 524.267 120.543 527.493 122.747C531.635 125.576 531.935 131.78 536.813 134.047Z" fill="#B08065"/>
<path d="M587.231 278.343L593.275 266.256C593.275 266.256 681.914 292.445 700.044 316.619C700.044 316.619 744.364 288.416 768.538 292.445L792.712 296.474L718.175 362.953L623.493 354.895L587.231 278.343Z" fill="#F2F2F2"/>
<path d="M583.202 266.256L500.607 381.083L619.464 439.504C619.464 439.504 630.575 445.548 639.121 439.504L718.175 403.243L792.712 296.474L718.175 334.749C718.175 334.749 710.117 318.633 694.001 326.691L583.202 266.256Z" fill="#A0616A"/>
<path d="M710.117 469.721L726.233 427.416C726.233 427.416 762.494 381.083 742.349 358.923C722.204 336.763 700.044 423.387 700.044 423.387L710.117 469.721Z" fill="#E7A1AB"/>
<path d="M524.173 462.968L559.338 434.459C559.338 434.459 613.952 412.571 607.644 383.295C601.335 354.019 538.706 417.834 538.706 417.834L524.173 462.968Z" fill="#E7A1AB"/>
<path opacity="0.1" d="M437.15 259.204H435.136C435.136 259.204 403.911 221.936 397.867 272.299C391.824 322.662 371.678 489.867 424.056 495.91C476.433 501.954 513.702 470.729 513.702 470.729C513.702 470.729 551.978 412.308 537.876 412.308C531.053 412.308 512.496 409.243 495.571 410.293C477.516 411.413 461.292 416.499 462.332 411.3C464.346 401.228 493.557 273.306 437.15 259.204Z" fill="black"/>
<path d="M434.128 219.92L426.07 215.891C426.07 215.891 393.838 221.934 387.795 272.297C381.751 322.66 361.606 489.865 413.983 495.908C466.361 501.952 536.869 487.85 536.869 487.85C536.869 487.85 550.97 411.299 536.869 411.299C522.767 411.299 450.245 421.371 452.259 411.299C454.274 401.226 490.535 234.021 434.128 219.92Z" fill="#575A89"/>
<path d="M680.906 446.556L703.121 412.509L717.168 468.716L680.906 484.832V446.556Z" fill="#575A89"/>
</svg>
