<svg width="753" height="498" viewBox="0 0 753 498" fill="none" xmlns="http://www.w3.org/2000/svg">
<path d="M285.762 409.839C288.088 409.839 290.362 410.513 292.296 411.775C294.23 413.038 295.738 414.832 296.628 416.932C297.518 419.031 297.751 421.342 297.297 423.57C296.844 425.799 295.723 427.847 294.079 429.453C292.434 431.06 290.338 432.155 288.056 432.598C285.775 433.041 283.41 432.814 281.261 431.944C279.111 431.075 277.275 429.602 275.982 427.712C274.69 425.823 274 423.601 274 421.329C274 418.282 275.239 415.359 277.445 413.204C279.651 411.049 282.642 409.839 285.762 409.839ZM285.762 428.4C287.193 428.4 288.593 427.985 289.783 427.208C290.973 426.431 291.901 425.327 292.449 424.035C292.997 422.743 293.14 421.321 292.861 419.949C292.582 418.578 291.892 417.318 290.88 416.329C289.868 415.34 288.578 414.667 287.174 414.394C285.77 414.121 284.314 414.261 282.992 414.796C281.669 415.331 280.539 416.238 279.743 417.4C278.948 418.563 278.523 419.93 278.523 421.329V421.329C278.523 423.204 279.286 425.003 280.643 426.329C282.001 427.655 283.842 428.4 285.762 428.4Z" fill="#E4E4E4"/>
<path d="M331 401H285.762V444.739C285.762 446.266 286.383 447.73 287.488 448.81C288.593 449.889 290.092 450.496 291.655 450.496H325.107C326.67 450.496 328.169 449.889 329.274 448.81C330.379 447.73 331 446.266 331 444.739V401Z" fill="#E4E4E4"/>
<path d="M665.133 452H0.896286C0.649952 451.973 0.422266 451.856 0.256866 451.671C0.0914674 451.487 0 451.248 0 451C0 450.752 0.0914674 450.513 0.256866 450.329C0.422266 450.144 0.649952 450.027 0.896286 450H665.133C665.38 450.027 665.607 450.144 665.773 450.329C665.938 450.513 666.03 450.752 666.03 451C666.03 451.248 665.938 451.487 665.773 451.671C665.607 451.856 665.38 451.973 665.133 452Z" fill="#CACACA"/>
<path d="M487.41 404.492L483.302 424.805L559.695 450.319L565.759 420.339L487.41 404.492Z" fill="#FFB6B6"/>
<path d="M495.09 400.652L486.999 440.655L486.999 440.657C485.631 447.417 481.633 453.358 475.885 457.172C470.137 460.985 463.11 462.359 456.349 460.992L455.521 460.824L468.768 395.328L495.09 400.652Z" fill="#2F2E41"/>
<path d="M573.979 124.695C602.627 124.695 625.85 101.472 625.85 72.8241C625.85 44.1766 602.627 20.9531 573.979 20.9531C545.332 20.9531 522.108 44.1766 522.108 72.8241C522.108 101.472 545.332 124.695 573.979 124.695Z" fill="#FEB8B8"/>
<path d="M622.427 28.0738C614.672 15.4806 602.533 6.2012 588.346 2.02176L581.978 6.66875V0.634753C578.571 0.113292 575.123 -0.087593 571.678 0.0347471L566.184 5.00576V0.447757C558.05 1.45858 550.213 4.14385 543.168 8.33426C536.123 12.5247 530.023 18.1293 525.252 24.7947C513.321 41.9947 511.307 65.9238 523.042 83.2617C526.263 73.3617 530.173 64.0727 533.395 54.1737C535.927 54.5189 538.493 54.5313 541.028 54.2108L544.947 45.0658L546.042 53.8238C558.19 52.7658 576.208 50.4417 587.724 48.3127L586.604 41.5938L593.304 47.1768C596.832 46.3648 598.927 45.6278 598.754 45.0648C607.319 58.8728 617.801 67.6918 626.365 81.4998C629.618 62.0298 633.362 45.8408 622.427 28.0738Z" fill="#B08065"/>
<path d="M590.856 412.257C664.62 412.257 724.416 395.531 724.416 374.898C724.416 354.265 664.62 337.539 590.856 337.539C517.093 337.539 457.296 354.265 457.296 374.898C457.296 395.531 517.093 412.257 590.856 412.257Z" fill="#2F2E41"/>
<path d="M685.539 206.212C683.755 195.481 681.916 184.544 676.928 174.877C673.65 168.545 668.447 162.511 661.433 161.259C660.051 161.136 658.694 160.822 657.398 160.325C655.343 159.335 627.725 143.569 623.335 140.823C619.566 138.466 613.617 134.101 610.617 134.101C607.599 134.035 596.026 136.728 550.856 133.197C543.259 136.247 535.901 139.865 528.846 144.019C528.701 143.923 481.964 169.02 480.208 168.954C476.883 168.814 473.793 170.943 471.886 173.624C469.98 176.305 469.086 179.624 468.15 182.833C478.358 205.566 487.698 228.328 497.907 251.061C498.385 251.918 498.639 252.881 498.646 253.861C498.44 254.879 498.006 255.837 497.376 256.661C492.369 264.703 492.528 274.818 493.075 284.27C493.623 293.722 494.299 303.706 490.075 312.178C488.926 314.504 487.432 316.633 486.339 318.959C483.78 324.227 482.855 341.076 484.35 346.736L671.617 352.101C667.59 341.033 685.539 206.212 685.539 206.212Z" fill="#A44A3F"/>
<path d="M451.963 252.068C451.59 254.771 451.552 257.51 451.851 260.222L454.535 298.768C454.787 302.401 455.035 306.025 455.376 309.649C456.02 316.682 456.982 323.659 458.176 330.626C458.203 331.615 458.622 332.554 459.339 333.235C460.057 333.916 461.016 334.284 462.005 334.259C473.82 336.759 486.027 336.659 498.085 335.978C516.485 334.951 563.559 333.008 566.435 329.272C569.311 325.536 567.635 319.493 563.885 316.472C560.135 313.451 498.014 306.086 498.014 306.086C498.621 301.276 500.452 296.746 502.189 292.179C505.309 284.079 508.223 275.713 508.279 267.036C508.335 258.359 505.066 249.236 497.958 244.265C492.111 240.184 484.583 239.427 477.458 239.595C472.274 239.744 463.317 238.502 458.582 240.529C454.835 242.179 452.663 248.399 451.963 252.068Z" fill="#FBBEBE"/>
<path d="M685.871 339.202C688.981 338.016 692.409 338.445 695.743 338.894C706.475 340.36 717.365 341.864 727.312 346.151C731.982 348.151 736.428 350.821 739.585 354.751C742.385 358.291 744.021 362.625 745.572 366.893L749.159 376.719C750.684 380.41 751.736 384.279 752.288 388.235C753.409 399.994 745.367 411.08 735.252 417.189C725.137 423.298 713.229 425.473 701.628 427.752C690.027 430.031 678.381 432.552 666.828 435.224C661.439 436.622 655.972 437.698 650.455 438.446C638.089 439.846 625.163 437.783 613.413 441.874C608.743 443.509 604.157 445.937 599.313 447.067C596.093 447.744 592.838 448.24 589.562 448.552L567.324 451.092C562.802 451.696 558.25 452.046 553.688 452.138C543.975 452.138 534.42 449.838 524.988 447.538C523.986 447.361 523.032 446.976 522.188 446.408C520.694 445.231 520.367 443.148 520.152 441.262C519.199 432.912 518.366 424.553 517.652 416.185C517.428 413.467 517.26 410.525 518.745 408.237C520.613 405.437 524.256 404.557 527.581 404.015C541.68 401.708 555.963 400.717 570.246 401.054C575.672 395.628 584.62 395.6 591.728 392.648C594.343 391.447 596.874 390.071 599.303 388.529C612.017 381.111 626.225 376.622 640.893 375.388C643.766 375.3 646.62 374.893 649.402 374.174C654.902 372.465 659.919 367.813 665.569 368.953C666.269 367.02 666.755 364.432 668.369 363.106C669.169 362.424 670.162 361.967 670.9 361.238C672.46 359.66 672.6 357.175 672.366 354.971C672.132 352.767 671.609 350.507 672.179 348.358C672.416 347.544 672.765 346.768 673.216 346.051C676.008 341.219 680.239 338.735 685.871 339.202Z" fill="#2F2E41"/>
<path d="M467.61 183.525C466.701 184.477 465.995 185.606 465.537 186.841C457.988 203.856 453.528 222.079 452.368 240.657C452.389 241.563 452.18 242.459 451.761 243.263C451.348 243.798 450.889 244.295 450.388 244.748C449.952 245.265 449.621 245.864 449.416 246.509C449.211 247.154 449.135 247.834 449.192 248.508C449.249 249.183 449.439 249.84 449.75 250.441C450.061 251.043 450.487 251.577 451.005 252.013C451.09 252.085 451.177 252.154 451.266 252.22C452.807 249.32 456.496 248.372 459.775 248.12C475.475 246.878 490.811 254.182 506.558 253.631C505.447 249.792 503.849 246.103 502.943 242.218C498.936 224.967 508.93 206.185 502.803 189.569C501.579 186.244 499.534 182.975 496.312 181.518C494.978 180.98 493.582 180.61 492.156 180.418C488.177 179.699 480.256 176.626 476.409 177.859C474.989 178.317 474.429 179.652 473.252 180.459C471.464 181.601 469.092 182.021 467.61 183.525Z" fill="#A44A3F"/>
<path d="M685.651 240.529C680.916 238.502 671.959 239.744 666.775 239.595C659.65 239.427 652.122 240.184 646.275 244.265C639.167 249.236 635.898 258.359 635.954 267.036C636.01 275.713 638.924 284.079 642.044 292.179C643.781 296.746 645.612 301.276 646.219 306.086C646.219 306.086 584.098 313.451 580.348 316.472C576.598 319.493 574.922 325.536 577.798 329.272C580.674 333.008 670.413 336.759 682.228 334.259C683.217 334.284 684.176 333.916 684.894 333.235C685.612 332.554 686.03 331.615 686.057 330.626C687.251 323.659 688.213 316.682 688.857 309.649C689.198 306.025 689.446 302.401 689.698 298.768L692.382 260.222C692.681 257.51 692.644 254.771 692.27 252.068C691.57 248.399 689.398 242.179 685.651 240.529Z" fill="#FBBEBE"/>
<path d="M670.981 180.459C669.804 179.652 669.244 178.317 667.824 177.859C663.977 176.626 656.056 179.699 652.077 180.418C650.652 180.61 649.255 180.98 647.921 181.518C644.699 182.975 642.654 186.244 641.43 189.569C635.303 206.185 645.297 224.967 641.29 242.218C640.384 246.103 638.786 249.792 637.675 253.631C653.422 254.182 668.758 246.878 684.458 248.12C687.737 248.372 691.426 249.32 692.967 252.22C693.057 252.154 693.144 252.085 693.229 252.013C693.746 251.577 694.173 251.043 694.484 250.441C694.795 249.84 694.984 249.183 695.042 248.508C695.099 247.834 695.023 247.154 694.818 246.509C694.612 245.864 694.282 245.265 693.845 244.748C693.345 244.295 692.885 243.798 692.472 243.263C692.054 242.459 691.845 241.563 691.865 240.657C690.705 222.079 686.246 203.856 678.696 186.841C678.238 185.606 677.533 184.477 676.623 183.525C675.141 182.021 672.769 181.601 670.981 180.459Z" fill="#A44A3F"/>
<path d="M697.243 433.489L694.513 454.032L613.975 453.277L618.005 422.957L697.243 433.489Z" fill="#FFB6B6"/>
<path d="M717.853 430.896L709.049 497.136L708.211 497.025C701.373 496.116 695.177 492.528 690.984 487.05C686.792 481.573 684.947 474.654 685.855 467.816L685.855 467.815L691.232 427.357L717.853 430.896Z" fill="#2F2E41"/>
<path d="M507.769 349.597C507.769 350.531 506.303 349.597 506.169 348.597C505.142 341.041 499.145 334.811 492.159 331.785C485.173 328.759 477.215 328.6 469.65 329.319C458.209 330.402 445.366 334.783 441.182 345.477C440.192 347.977 430.918 370.237 431.823 375.243C434.261 388.599 443.395 400.022 454.463 407.933C465.531 415.844 478.463 420.57 491.363 424.833C525.469 436.082 560.462 444.439 595.97 449.817C601.723 450.686 607.533 451.489 613.043 453.338C617.974 454.991 622.588 457.466 627.408 459.409C638.616 463.909 650.674 465.517 662.619 467.096C664.655 467.358 666.99 467.544 668.494 466.162C670.437 464.362 669.794 461.221 669.241 458.634C667.214 448.797 668.915 438.558 674.014 429.905C676.014 426.543 678.614 423.096 678.236 419.205C677.788 414.666 673.267 411.453 668.765 410.724C664.263 409.995 659.687 411.07 655.165 411.658C653.616 412.014 651.992 411.853 650.542 411.2C649.87 410.747 649.261 410.207 648.73 409.594C645.616 406.59 641.631 404.649 637.345 404.05C633.06 403.451 628.695 404.225 624.876 406.26C623.204 407.194 620.676 405.111 618.936 404.327L599.294 395.435C576.729 385.227 554.052 374.971 530.179 368.508C528.274 368.134 526.464 367.381 524.855 366.294C523.669 365.36 522.819 364.094 521.726 363.053C519.344 360.802 516.026 359.905 513.171 358.308C510.316 356.711 507.115 352.8 507.769 349.597Z" fill="#2F2E41"/>
<path d="M558.617 336.102C566.349 336.102 572.617 329.834 572.617 322.102C572.617 314.37 566.349 308.102 558.617 308.102C550.885 308.102 544.617 314.37 544.617 322.102C544.617 329.834 550.885 336.102 558.617 336.102Z" fill="#FBBEBE"/>
<path d="M589.617 336.102C597.349 336.102 603.617 329.834 603.617 322.102C603.617 314.37 597.349 308.102 589.617 308.102C581.885 308.102 575.617 314.37 575.617 322.102C575.617 329.834 581.885 336.102 589.617 336.102Z" fill="#FBBEBE"/>
<path d="M676.035 353.647H483.696C481.451 353.645 479.298 352.752 477.71 351.164C476.122 349.576 475.229 347.423 475.226 345.178V228.491C475.229 226.246 476.122 224.093 477.71 222.505C479.298 220.917 481.451 220.024 483.696 220.021H676.035C678.281 220.024 680.434 220.917 682.022 222.505C683.609 224.093 684.503 226.246 684.505 228.491V345.178C684.503 347.423 683.609 349.576 682.022 351.164C680.434 352.752 678.281 353.645 676.035 353.647Z" fill="#3F3D56"/>
<path d="M579.399 292.438C582.494 292.438 585.003 289.929 585.003 286.834C585.003 283.739 582.494 281.23 579.399 281.23C576.304 281.23 573.795 283.739 573.795 286.834C573.795 289.929 576.304 292.438 579.399 292.438Z" fill="white"/>
<path opacity="0.1" d="M388.541 80C378.153 79.9948 367.998 83.0703 359.358 88.8376C350.719 94.6048 343.984 102.805 340.005 112.4C336.026 121.995 334.983 132.555 337.006 142.744C339.029 152.932 344.029 162.292 351.372 169.639C358.715 176.986 368.072 181.99 378.26 184.018C388.447 186.047 399.008 185.008 408.605 181.034C418.202 177.06 426.406 170.329 432.177 161.693C437.949 153.056 441.029 142.902 441.029 132.515C441.029 118.591 435.5 105.238 425.657 95.3905C415.815 85.5428 402.464 80.007 388.541 80ZM388.541 178.003C379.538 178.003 370.737 175.333 363.252 170.33C355.766 165.328 349.933 158.218 346.489 149.9C343.044 141.582 342.145 132.429 343.903 123.599C345.661 114.77 349.999 106.66 356.367 100.296C362.735 93.9313 370.847 89.5985 379.678 87.8453C388.508 86.0921 397.66 86.9972 405.977 90.4461C414.293 93.895 421.399 99.7327 426.397 107.221C431.396 114.709 434.06 123.512 434.055 132.515C434.054 144.585 429.258 156.16 420.723 164.695C412.187 173.229 400.611 178.024 388.541 178.024V178.003Z" fill="white"/>
<circle cx="385.206" cy="132.058" r="34.9222" fill="#DFDFDF"/>
<path d="M388.458 140.214C392.907 140.214 396.513 136.607 396.513 132.159C396.513 127.71 392.907 124.104 388.458 124.104C384.01 124.104 380.403 127.71 380.403 132.159C380.403 136.607 384.01 140.214 388.458 140.214Z" fill="#2F2E41"/>
<path d="M398.527 112.021H378.389C375.721 112.029 373.165 113.093 371.278 114.979C369.392 116.866 368.328 119.422 368.321 122.09V142.228C368.328 144.896 369.392 147.452 371.278 149.339C373.165 151.225 375.721 152.289 378.389 152.297H398.527C401.195 152.289 403.751 151.225 405.638 149.339C407.524 147.452 408.588 144.896 408.596 142.228V122.09C408.588 119.422 407.524 116.866 405.638 114.979C403.751 113.093 401.195 112.029 398.527 112.021H398.527ZM388.458 144.241C386.068 144.241 383.732 143.533 381.745 142.205C379.758 140.878 378.21 138.991 377.295 136.783C376.381 134.575 376.142 132.146 376.608 129.802C377.074 127.458 378.225 125.305 379.914 123.615C381.604 121.926 383.757 120.775 386.101 120.309C388.445 119.842 390.874 120.082 393.082 120.996C395.29 121.911 397.177 123.459 398.504 125.446C399.832 127.433 400.541 129.769 400.541 132.159C400.54 135.363 399.267 138.436 397.001 140.702C394.735 142.967 391.662 144.241 388.458 144.241ZM401.547 122.09C400.95 122.09 400.366 121.913 399.869 121.581C399.372 121.249 398.985 120.777 398.757 120.226C398.528 119.674 398.468 119.066 398.585 118.48C398.701 117.894 398.989 117.356 399.412 116.934C399.834 116.511 400.372 116.224 400.958 116.107C401.544 115.99 402.151 116.05 402.703 116.279C403.255 116.508 403.727 116.895 404.059 117.391C404.391 117.888 404.568 118.472 404.568 119.07C404.569 119.467 404.492 119.86 404.34 120.227C404.189 120.594 403.966 120.927 403.685 121.208C403.405 121.488 403.071 121.711 402.704 121.862C402.338 122.014 401.944 122.091 401.547 122.09V122.09Z" fill="#2F2E41"/>
<path d="M388.62 84.5313C379.168 84.5313 369.929 87.334 362.07 92.585C354.211 97.8361 348.086 105.3 344.469 114.032C340.852 122.764 339.906 132.373 341.75 141.643C343.594 150.913 348.145 159.428 354.828 166.111C361.512 172.794 370.027 177.346 379.297 179.19C388.567 181.033 398.175 180.087 406.908 176.47C415.64 172.853 423.103 166.728 428.354 158.869C433.605 151.011 436.408 141.771 436.408 132.32C436.408 126.044 435.172 119.83 432.77 114.032C430.369 108.234 426.849 102.966 422.411 98.5281C417.974 94.0906 412.706 90.5705 406.908 88.1689C401.11 85.7673 394.896 84.5312 388.62 84.5313ZM413.302 141.965C413.291 145.7 411.802 149.279 409.161 151.921C406.52 154.562 402.941 156.051 399.206 156.061H379.068C375.333 156.051 371.754 154.562 369.113 151.921C366.471 149.279 364.983 145.7 364.972 141.965V121.828C364.983 118.092 366.471 114.513 369.113 111.872C371.754 109.231 375.333 107.742 379.068 107.731H399.206C402.941 107.742 406.52 109.231 409.161 111.872C411.802 114.513 413.291 118.093 413.302 121.828L413.302 141.965Z" fill="#2F2E41"/>
<path d="M191 236C223.585 236 250 209.585 250 177C250 144.415 223.585 118 191 118C158.415 118 132 144.415 132 177C132 209.585 158.415 236 191 236Z" fill="#2F2E41"/>
<path d="M191.013 141.903C171.214 141.903 155.157 158.021 155.157 177.9C155.157 193.804 165.43 207.297 179.679 212.057C181.469 212.39 182.049 211.274 182.049 210.326V203.625C172.075 205.803 169.998 199.378 169.998 199.378C168.367 195.217 166.015 194.11 166.015 194.11C162.761 191.875 166.263 191.923 166.263 191.923C169.864 192.175 171.758 195.634 171.758 195.634C174.955 201.135 180.146 199.546 182.192 198.625C182.512 196.3 183.441 194.71 184.469 193.813C176.506 192.898 168.134 189.812 168.134 176.022C168.134 172.089 169.535 168.88 171.827 166.36C171.456 165.451 170.228 161.788 172.177 156.833C172.177 156.833 175.188 155.867 182.04 160.522C184.899 159.725 187.965 159.326 191.013 159.311C194.061 159.326 197.129 159.725 199.995 160.522C206.84 155.867 209.846 156.833 209.846 156.833C211.797 161.791 210.569 165.454 210.199 166.36C212.499 168.88 213.889 172.092 213.889 176.022C213.889 189.848 205.502 192.892 197.518 193.783C198.802 194.899 199.977 197.089 199.977 200.448V210.326C199.977 211.283 200.55 212.408 202.37 212.054C216.608 207.288 226.869 193.798 226.869 177.9C226.869 158.021 210.814 141.903 191.013 141.903Z" fill="#F5F5F5"/>
<path d="M316 304C334.778 304 350 288.778 350 270C350 251.222 334.778 236 316 236C297.222 236 282 251.222 282 270C282 288.778 297.222 304 316 304Z" fill="#2F2E41"/>
<path d="M326.984 250.571H304.575C300.155 250.571 296.572 254.155 296.572 258.575V280.984C296.572 285.403 300.155 288.987 304.575 288.987H326.984C331.405 288.987 334.987 285.403 334.987 280.984V258.575C334.987 254.155 331.405 250.571 326.984 250.571ZM309.377 280.984H304.575V263.376H309.377V280.984ZM306.976 261.347C305.43 261.347 304.175 260.082 304.175 258.523C304.175 256.964 305.43 255.7 306.976 255.7C308.522 255.7 309.777 256.964 309.777 258.523C309.777 260.082 308.524 261.347 306.976 261.347ZM328.585 280.984H323.783V272.014C323.783 266.623 317.38 267.031 317.38 272.014V280.984H312.578V263.376H317.38V266.202C319.614 262.062 328.585 261.757 328.585 270.165V280.984Z" fill="#F5F5F5"/>
</svg>
