<svg width="155" height="23" viewBox="0 0 155 23" fill="none" xmlns="http://www.w3.org/2000/svg">
<path d="M0.44 1.2H10.52C12.2 1.2 13.416 1.584 14.168 2.352C14.936 3.104 15.32 4.32 15.32 6V8.16C15.32 9.488 15.096 10.52 14.648 11.256C14.216 11.992 13.52 12.48 12.56 12.72L15.56 18H10.88L8.12 12.96H4.76V18H0.44V1.2ZM11 6C11 5.04 10.52 4.56 9.56 4.56H4.76V9.6H9.56C10.52 9.6 11 9.12 11 8.16V6ZM30.4334 14.4C30.4334 15.6 30.0894 16.544 29.4014 17.232C28.7294 17.904 27.7934 18.24 26.5934 18.24H21.0734C19.8734 18.24 18.9294 17.904 18.2414 17.232C17.5694 16.544 17.2334 15.6 17.2334 14.4V8.88C17.2334 7.68 17.5694 6.744 18.2414 6.072C18.9294 5.384 19.8734 5.04 21.0734 5.04H26.5934C27.7934 5.04 28.7294 5.384 29.4014 6.072C30.0894 6.744 30.4334 7.68 30.4334 8.88V14.4ZM26.2334 9.24C26.2334 8.6 25.9134 8.28 25.2734 8.28H22.3934C21.7534 8.28 21.4334 8.6 21.4334 9.24V14.04C21.4334 14.68 21.7534 15 22.3934 15H25.2734C25.9134 15 26.2334 14.68 26.2334 14.04V9.24ZM41.5906 18L41.3506 16.8C40.5986 17.296 39.8226 17.664 39.0226 17.904C38.2386 18.128 37.5746 18.24 37.0306 18.24H35.9506C34.8626 18.24 33.9906 17.912 33.3346 17.256C32.6786 16.6 32.3506 15.728 32.3506 14.64V9.12C32.3506 7.92 32.6866 6.984 33.3586 6.312C34.0466 5.624 34.9906 5.28 36.1906 5.28H41.1106V1.2H45.3106V18H41.5906ZM38.2306 14.76C39.0786 14.76 40.0386 14.6 41.1106 14.28V8.52H37.5106C36.8706 8.52 36.5506 8.84 36.5506 9.48V13.92C36.5506 14.16 36.6306 14.36 36.7906 14.52C36.9506 14.68 37.1506 14.76 37.3906 14.76H38.2306ZM55.0278 8.76C54.0198 8.76 52.9798 9 51.9078 9.48V18H47.7078V5.28H51.4278L51.6678 6.84C53.0438 5.64 54.4838 5.04 55.9878 5.04H57.0678V8.76H55.0278ZM64.0269 5.76V18H59.8269V9H58.0269V5.76H64.0269ZM59.8269 0.959999H64.0269V4.32H59.8269V0.959999ZM74.7144 17.04C73.1624 17.36 71.8024 17.52 70.6344 17.52H69.7944C68.7064 17.52 67.8344 17.192 67.1784 16.536C66.5224 15.88 66.1944 15.008 66.1944 13.92V9.12C66.1944 7.92 66.5304 6.984 67.2024 6.312C67.8904 5.624 68.8344 5.28 70.0344 5.28H78.9144V18.72C78.9144 19.808 78.5864 20.68 77.9304 21.336C77.2744 21.992 76.4024 22.32 75.3144 22.32C72.8024 22.32 70.0024 22.16 66.9144 21.84V18.72C69.9704 18.96 72.2904 19.08 73.8744 19.08C74.1144 19.08 74.3144 19 74.4744 18.84C74.6344 18.68 74.7144 18.48 74.7144 18.24V17.04ZM71.8344 14.28C72.8424 14.28 73.8024 14.2 74.7144 14.04V8.52H71.3544C70.7144 8.52 70.3944 8.84 70.3944 9.48V13.44C70.3944 13.68 70.4744 13.88 70.6344 14.04C70.7944 14.2 70.9944 14.28 71.2344 14.28H71.8344ZM94.2772 14.4C94.2772 15.6 93.9332 16.544 93.2452 17.232C92.5732 17.904 91.6372 18.24 90.4372 18.24H84.9172C83.7172 18.24 82.7732 17.904 82.0852 17.232C81.4132 16.544 81.0772 15.6 81.0772 14.4V8.88C81.0772 7.68 81.4132 6.744 82.0852 6.072C82.7732 5.384 83.7172 5.04 84.9172 5.04H90.4372C91.6372 5.04 92.5732 5.384 93.2452 6.072C93.9332 6.744 94.2772 7.68 94.2772 8.88V14.4ZM90.0772 9.24C90.0772 8.6 89.7572 8.28 89.1172 8.28H86.2372C85.5972 8.28 85.2772 8.6 85.2772 9.24V14.04C85.2772 14.68 85.5972 15 86.2372 15H89.1172C89.7572 15 90.0772 14.68 90.0772 14.04V9.24ZM117.19 18H103.87V1.2H117.19V4.56H108.19V7.8H115.27V11.16H108.19V14.64H117.19V18ZM125.344 18C124.272 18.16 123.248 18.24 122.272 18.24C121.312 18.24 120.504 17.912 119.848 17.256C119.192 16.6 118.864 15.728 118.864 14.64V1.2H123.064V14.04C123.064 14.28 123.144 14.48 123.304 14.64C123.464 14.8 123.664 14.88 123.904 14.88H125.344V18ZM139.98 14.4C139.98 15.6 139.636 16.544 138.948 17.232C138.276 17.904 137.34 18.24 136.14 18.24H130.62C129.42 18.24 128.476 17.904 127.788 17.232C127.116 16.544 126.78 15.6 126.78 14.4V8.88C126.78 7.68 127.116 6.744 127.788 6.072C128.476 5.384 129.42 5.04 130.62 5.04H136.14C137.34 5.04 138.276 5.384 138.948 6.072C139.636 6.744 139.98 7.68 139.98 8.88V14.4ZM135.78 9.24C135.78 8.6 135.46 8.28 134.82 8.28H131.94C131.3 8.28 130.98 8.6 130.98 9.24V14.04C130.98 14.68 131.3 15 131.94 15H134.82C135.46 15 135.78 14.68 135.78 14.04V9.24ZM145.263 22.32C144.415 22.32 143.375 22.24 142.143 22.08V18.96H144.303C144.911 18.96 145.303 18.792 145.479 18.456C145.671 18.12 145.639 17.648 145.383 17.04L140.463 5.28H144.903L147.903 13.44L150.423 5.28H154.863L150.063 18.48C149.599 19.744 148.999 20.696 148.263 21.336C147.527 21.992 146.527 22.32 145.263 22.32Z" fill="black"/>
</svg>
