<svg width="413" height="58" viewBox="0 0 413 58" fill="none" xmlns="http://www.w3.org/2000/svg">
<path d="M0.84 1.2H27.72C32.2 1.2 35.4427 2.224 37.448 4.272C39.496 6.27733 40.52 9.52 40.52 14V19.76C40.52 23.3013 39.9227 26.0533 38.728 28.016C37.576 29.9787 35.72 31.28 33.16 31.92L41.16 46H28.68L21.32 32.56H12.36V46H0.84V1.2ZM29 14C29 11.44 27.72 10.16 25.16 10.16H12.36V23.6H25.16C27.72 23.6 29 22.32 29 19.76V14ZM80.8225 36.4C80.8225 39.6 79.9052 42.1173 78.0705 43.952C76.2785 45.744 73.7825 46.64 70.5825 46.64H55.8625C52.6625 46.64 50.1452 45.744 48.3105 43.952C46.5185 42.1173 45.6225 39.6 45.6225 36.4V21.68C45.6225 18.48 46.5185 15.984 48.3105 14.192C50.1452 12.3573 52.6625 11.44 55.8625 11.44H70.5825C73.7825 11.44 76.2785 12.3573 78.0705 14.192C79.9052 15.984 80.8225 18.48 80.8225 21.68V36.4ZM69.6225 22.64C69.6225 20.9333 68.7692 20.08 67.0625 20.08H59.3825C57.6758 20.08 56.8225 20.9333 56.8225 22.64V35.44C56.8225 37.1467 57.6758 38 59.3825 38H67.0625C68.7692 38 69.6225 37.1467 69.6225 35.44V22.64ZM110.575 46L109.935 42.8C107.93 44.1227 105.86 45.104 103.727 45.744C101.636 46.3413 99.8657 46.64 98.415 46.64H95.535C92.6337 46.64 90.3083 45.7653 88.559 44.016C86.8097 42.2667 85.935 39.9413 85.935 37.04V22.32C85.935 19.12 86.831 16.624 88.623 14.832C90.4577 12.9973 92.975 12.08 96.175 12.08H109.295V1.2H120.495V46H110.575ZM101.615 37.36C103.876 37.36 106.436 36.9333 109.295 36.08V20.72H99.695C97.9883 20.72 97.135 21.5733 97.135 23.28V35.12C97.135 35.76 97.3483 36.2933 97.775 36.72C98.2017 37.1467 98.735 37.36 99.375 37.36H101.615ZM146.408 21.36C143.72 21.36 140.946 22 138.088 23.28V46H126.888V12.08H136.808L137.448 16.24C141.117 13.04 144.957 11.44 148.968 11.44H151.848V21.36H146.408ZM170.405 13.36V46H159.205V22H154.405V13.36H170.405ZM159.205 0.559998H170.405V9.52H159.205V0.559998ZM198.905 43.44C194.766 44.2933 191.14 44.72 188.025 44.72H185.785C182.884 44.72 180.558 43.8453 178.809 42.096C177.06 40.3467 176.185 38.0213 176.185 35.12V22.32C176.185 19.12 177.081 16.624 178.873 14.832C180.708 12.9973 183.225 12.08 186.425 12.08H210.105V47.92C210.105 50.8213 209.23 53.1467 207.481 54.896C205.732 56.6453 203.406 57.52 200.505 57.52C193.806 57.52 186.34 57.0933 178.105 56.24V47.92C186.254 48.56 192.441 48.88 196.665 48.88C197.305 48.88 197.838 48.6667 198.265 48.24C198.692 47.8133 198.905 47.28 198.905 46.64V43.44ZM191.225 36.08C193.913 36.08 196.473 35.8667 198.905 35.44V20.72H189.945C188.238 20.72 187.385 21.5733 187.385 23.28V33.84C187.385 34.48 187.598 35.0133 188.025 35.44C188.452 35.8667 188.985 36.08 189.625 36.08H191.225ZM251.073 36.4C251.073 39.6 250.155 42.1173 248.321 43.952C246.529 45.744 244.032 46.64 240.833 46.64H226.113C222.913 46.64 220.395 45.744 218.561 43.952C216.769 42.1173 215.873 39.6 215.873 36.4V21.68C215.873 18.48 216.769 15.984 218.561 14.192C220.395 12.3573 222.913 11.44 226.113 11.44H240.833C244.032 11.44 246.529 12.3573 248.321 14.192C250.155 15.984 251.073 18.48 251.073 21.68V36.4ZM239.873 22.64C239.873 20.9333 239.019 20.08 237.313 20.08H229.633C227.926 20.08 227.073 20.9333 227.073 22.64V35.44C227.073 37.1467 227.926 38 229.633 38H237.313C239.019 38 239.873 37.1467 239.873 35.44V22.64ZM312.173 46H276.653V1.2H312.173V10.16H288.173V18.8H307.053V27.76H288.173V37.04H312.173V46ZM333.918 46C331.059 46.4267 328.328 46.64 325.726 46.64C323.166 46.64 321.011 45.7653 319.262 44.016C317.512 42.2667 316.638 39.9413 316.638 37.04V1.2H327.838V35.44C327.838 36.08 328.051 36.6133 328.478 37.04C328.904 37.4667 329.438 37.68 330.078 37.68H333.918V46ZM372.948 36.4C372.948 39.6 372.03 42.1173 370.196 43.952C368.404 45.744 365.907 46.64 362.708 46.64H347.988C344.788 46.64 342.27 45.744 340.436 43.952C338.644 42.1173 337.748 39.6 337.748 36.4V21.68C337.748 18.48 338.644 15.984 340.436 14.192C342.27 12.3573 344.788 11.44 347.988 11.44H362.708C365.907 11.44 368.404 12.3573 370.196 14.192C372.03 15.984 372.948 18.48 372.948 21.68V36.4ZM361.748 22.64C361.748 20.9333 360.894 20.08 359.188 20.08H351.508C349.801 20.08 348.948 20.9333 348.948 22.64V35.44C348.948 37.1467 349.801 38 351.508 38H359.188C360.894 38 361.748 37.1467 361.748 35.44V22.64ZM387.035 57.52C384.774 57.52 382 57.3067 378.715 56.88V48.56H384.475C386.096 48.56 387.142 48.112 387.611 47.216C388.123 46.32 388.038 45.0613 387.355 43.44L374.235 12.08H386.075L394.075 33.84L400.795 12.08H412.635L399.835 47.28C398.598 50.6507 396.998 53.1893 395.035 54.896C393.072 56.6453 390.406 57.52 387.035 57.52Z" fill="black"/>
</svg>
