<svg width="795" height="597" viewBox="0 0 795 597" fill="none" xmlns="http://www.w3.org/2000/svg">
<path d="M328.498 514.493C434.377 514.493 520.209 428.66 520.209 322.781C520.209 216.902 434.377 131.069 328.498 131.069C222.618 131.069 136.786 216.902 136.786 322.781C136.786 428.66 222.618 514.493 328.498 514.493Z" fill="#575A89"/>
<path d="M299.376 473.235H241.134V577.585H299.376V473.235Z" fill="#575A89"/>
<path d="M415.861 473.235H357.619V577.585H415.861V473.235Z" fill="#575A89"/>
<path d="M289.669 597C316.474 597 338.204 588.851 338.204 578.799C338.204 568.747 316.474 560.599 289.669 560.599C262.864 560.599 241.134 568.747 241.134 578.799C241.134 588.851 262.864 597 289.669 597Z" fill="#575A89"/>
<path d="M406.154 594.574C432.959 594.574 454.688 586.425 454.688 576.373C454.688 566.322 432.959 558.173 406.154 558.173C379.349 558.173 357.619 566.322 357.619 576.373C357.619 586.425 379.349 594.574 406.154 594.574Z" fill="#575A89"/>
<path d="M535.088 239.005C576.606 197.454 599.689 153.205 586.645 140.171C573.601 127.137 529.37 150.255 487.851 191.805C446.333 233.356 423.25 277.605 436.293 290.639C449.337 303.673 493.569 280.556 535.088 239.005Z" fill="#575A89"/>
<path d="M173.97 303.995C187.014 290.961 163.931 246.712 122.412 205.161C80.8938 163.61 36.6621 140.493 23.6182 153.527C10.5742 166.561 33.6574 210.81 75.1759 252.361C116.694 293.911 160.926 317.029 173.97 303.995Z" fill="#575A89"/>
<path d="M320.432 361.136C356.618 361.136 385.954 331.801 385.954 295.614C385.954 259.428 356.618 230.093 320.432 230.093C284.245 230.093 254.91 259.428 254.91 295.614C254.91 331.801 284.245 361.136 320.432 361.136Z" fill="white"/>
<path d="M320.431 317.454C332.493 317.454 342.271 307.675 342.271 295.613C342.271 283.551 332.493 273.772 320.431 273.772C308.368 273.772 298.59 283.551 298.59 295.613C298.59 307.675 308.368 317.454 320.431 317.454Z" fill="#3F3D56"/>
<path d="M372.445 416.792C374.469 427.91 371.994 439.377 365.563 448.67C359.132 457.964 349.273 464.321 338.155 466.345C327.036 468.37 315.569 465.894 306.276 459.463C296.983 453.032 290.625 443.173 288.601 432.055V432.055L288.586 431.973C284.394 408.816 302.298 400.621 325.455 396.429C348.612 392.237 368.253 393.635 372.445 416.792Z" fill="white"/>
<path d="M516.48 523.983C512.165 523.988 508.028 525.705 504.977 528.756C501.926 531.807 500.21 535.944 500.205 540.259V574.256C500.21 578.571 501.926 582.709 504.977 585.76C508.028 588.811 512.165 590.528 516.48 590.532H778.358C782.673 590.528 786.81 588.811 789.861 585.76C792.912 582.709 794.629 578.572 794.634 574.257V540.259C794.629 535.944 792.912 531.807 789.861 528.756C786.81 525.705 782.673 523.988 778.358 523.983H516.48Z" fill="#E5E5E5"/>
<path d="M667.084 501.345C665.463 500.409 663.537 500.156 661.728 500.64C659.92 501.125 658.379 502.308 657.443 503.929L647.711 520.785L638.174 501.937C637.329 500.267 635.855 499.001 634.076 498.417C632.298 497.834 630.36 497.981 628.69 498.826C627.02 499.671 625.754 501.145 625.17 502.923C624.587 504.702 624.734 506.639 625.579 508.31L633.001 522.978H630.281V591.544H666.58V522.978H662.745L669.668 510.987C670.604 509.366 670.857 507.439 670.373 505.631C669.888 503.823 668.705 502.281 667.084 501.345V501.345Z" fill="#A44A3F"/>
<path d="M323.559 197.033C289.495 196.998 255.632 191.824 223.112 181.687C220.853 180.958 218.882 179.533 217.481 177.617C216.08 175.7 215.321 173.389 215.312 171.015V92.9802C215.316 90.0297 216.49 87.2012 218.576 85.1149C220.662 83.0286 223.491 81.855 226.441 81.8516H422.304C425.255 81.855 428.083 83.0286 430.17 85.1149C432.256 87.2012 433.43 90.0297 433.433 92.9802V170.969C433.434 173.364 432.665 175.695 431.239 177.618C429.813 179.542 427.806 180.955 425.515 181.65C392.467 191.748 358.114 196.93 323.559 197.033V197.033Z" fill="#A44A3F"/>
<path opacity="0.2" d="M431.207 92.98V106.023L325.218 143.192C323.237 143.876 321.079 143.844 319.119 143.103L217.538 104.954V92.98C217.545 90.6209 218.485 88.3605 220.153 86.6923C221.821 85.0242 224.082 84.084 226.441 84.0771H422.304C424.663 84.084 426.924 85.0242 428.592 86.6923C430.26 88.3605 431.2 90.6209 431.207 92.98Z" fill="black"/>
<path d="M322.253 128.11C320.917 128.111 319.592 127.872 318.341 127.404L166.543 70.4043C164.396 69.5982 162.551 68.1489 161.26 66.2546C159.968 64.3602 159.293 62.1134 159.327 59.821C159.361 57.5286 160.102 55.3026 161.449 53.4473C162.796 51.592 164.683 50.1978 166.852 49.4556L309.679 0.594046C311.986 -0.187473 314.485 -0.198141 316.799 0.563617L476.206 53.7005C478.408 54.4345 480.325 55.8386 481.689 57.7163C483.054 59.594 483.797 61.8514 483.815 64.1724C483.833 66.4935 483.124 68.762 481.789 70.6605C480.454 72.559 478.558 73.9925 476.368 74.7602L325.933 127.486C324.75 127.9 323.506 128.111 322.253 128.11V128.11Z" fill="#A44A3F"/>
<path d="M184.157 124.141H179.705V59.5947H315.474V64.0462H184.157V124.141Z" fill="#3F3D56"/>
<path d="M181.926 137.495C186.843 137.495 190.829 133.509 190.829 128.592C190.829 123.675 186.843 119.689 181.926 119.689C177.009 119.689 173.023 123.675 173.023 128.592C173.023 133.509 177.009 137.495 181.926 137.495Z" fill="#3F3D56"/>
</svg>
